<?xml version="1.0" encoding="UTF-8" standalone="no"?>
<!-- Created with Inkscape (http://www.inkscape.org/) -->

<svg
   width="185.74593mm"
   height="30.212109mm"
   viewBox="0 0 702.03186 114.1875"
   version="1.1"
   id="svg1"
   inkscape:version="1.4.2 (f4327f4, 2025-05-13)"
   sodipodi:docname="evermont.svg"
   inkscape:export-filename="..\..\Full-Service-Event-Planning\assets\images\YG_logo.png"
   inkscape:export-xdpi="51.313133"
   inkscape:export-ydpi="51.313133"
   xml:space="preserve"
   xmlns:inkscape="http://www.inkscape.org/namespaces/inkscape"
   xmlns:sodipodi="http://sodipodi.sourceforge.net/DTD/sodipodi-0.dtd"
   xmlns:xlink="http://www.w3.org/1999/xlink"
   xmlns="http://www.w3.org/2000/svg"
   xmlns:svg="http://www.w3.org/2000/svg"><sodipodi:namedview
     id="namedview1"
     pagecolor="#505050"
     bordercolor="#eeeeee"
     borderopacity="1"
     inkscape:showpageshadow="0"
     inkscape:pageopacity="0"
     inkscape:pagecheckerboard="0"
     inkscape:deskcolor="#505050"
     inkscape:document-units="mm"
     inkscape:zoom="0.46368898"
     inkscape:cx="603.85304"
     inkscape:cy="419.4622"
     inkscape:window-width="1920"
     inkscape:window-height="991"
     inkscape:window-x="-9"
     inkscape:window-y="-9"
     inkscape:window-maximized="1"
     inkscape:current-layer="layer4"
     showguides="false"
     showgrid="false"><inkscape:grid
       id="grid1"
       units="mm"
       originx="-210.24397"
       originy="-339.75665"
       spacingx="3.7795277"
       spacingy="3.7795276"
       empcolor="#0099e5"
       empopacity="0.30196078"
       color="#0099e5"
       opacity="0.14901961"
       empspacing="5"
       enabled="true"
       visible="false" /><inkscape:page
       x="0"
       y="0"
       width="702.03186"
       height="114.1875"
       id="page2"
       margin="0"
       bleed="0" /></sodipodi:namedview><defs
     id="defs1"><linearGradient
       id="linearGradient118-2"><stop
         style="stop-color:#5810be;stop-opacity:1;"
         offset="0.12237094"
         id="stop119" /><stop
         style="stop-color:#4fd5c8;stop-opacity:0.89738804;"
         offset="0.78011471"
         id="stop5" /></linearGradient><linearGradient
       inkscape:collect="always"
       xlink:href="#linearGradient118-2"
       id="linearGradient11"
       x1="257.68945"
       y1="517.38477"
       x2="864.83008"
       y2="517.38477"
       gradientUnits="userSpaceOnUse"
       gradientTransform="matrix(1.1562919,0,0,1,-87.720316,-120.53438)" /></defs><g
     inkscape:label="Layer 2"
     inkscape:groupmode="layer"
     id="layer1"
     style="display:inline"
     transform="translate(-210.24396,-339.75666)"><path
       id="text1"
       style="font-size:192px;font-family:Aesthetiva;-inkscape-font-specification:'Aesthetiva, Normal';display:inline;mix-blend-mode:normal;fill:url(#linearGradient11);fill-rule:nonzero;stroke:none;stroke-width:1.077;stroke-dasharray:none"
       d="m 879.10465,339.75665 c 0,6.3125 -2.60166,11.71875 -7.80497,16.21875 -5.20332,4.5 -11.70746,6.75 -19.51243,6.75 v 3.65625 h 8.56379 v 74.4375 c 0,3.625 1.48149,6.71875 4.4445,9.28125 2.96299,2.5625 6.54027,3.84375 10.73183,3.84375 h 18.4284 v -1.78125 c -5.63692,-3.5625 -8.45538,-8.0625 -8.45538,-13.5 v -72.28125 h 26.77538 v -3.65625 h -26.77538 v -22.96875 z m -617.04438,22.58789 c -8.88899,0 -17.23597,1.96875 -25.04094,5.90625 -6.21508,3.3125 -11.34611,7.1875 -15.39315,11.625 -2.09577,2.5 -3.25207,3.9375 -3.46886,4.3125 -5.27559,7.25 -7.91338,15.125 -7.91338,23.625 0,5.375 1.12016,10.71875 3.36047,16.03125 3.90249,9.0625 10.3705,16.28125 19.40403,21.65625 9.1058,5.375 18.86201,8.0625 29.26864,8.0625 9.68394,0 18.60907,-2.46875 26.77538,-7.40625 7.29909,-4.375 13.18896,-9.6875 17.66959,-15.9375 0.21681,-0.375 0.3252,-0.71875 0.3252,-1.03125 0,-0.4375 -0.18066,-0.875 -0.54201,-1.3125 -0.28907,-0.4375 -0.83108,-0.65625 -1.62603,-0.65625 -0.86722,0 -1.55377,0.34375 -2.05964,1.03125 -0.93949,1.6875 -3.39661,4.46875 -7.37137,8.34375 -3.97475,3.8125 -9.46713,7.25 -16.47716,10.3125 -3.25207,1.3125 -6.61254,1.96875 -10.08142,1.96875 -9.97301,0 -18.03092,-4.4375 -24.17372,-13.3125 -3.46888,-5.1875 -5.96214,-11.125 -7.47977,-17.8125 l 69.59432,-31.125 c 1.3731,-0.6875 2.05964,-1.625 2.05964,-2.8125 0,-0.625 -0.21679,-1.25 -0.65041,-1.875 -10.33436,-13.0625 -25.72749,-19.59375 -46.17941,-19.59375 z m 462.16449,0 c -9.53941,0 -18.39227,2.53125 -26.55859,7.59375 -5.42011,3.375 -10.11756,7.5625 -14.09231,12.5625 -6.07053,7.75 -9.10579,16.25 -9.10579,25.5 0,9.4375 3.1798,18.0625 9.53941,25.875 8.31085,9.9375 19.65696,16.21875 34.03834,18.84375 3.32434,0.5625 6.61254,0.84375 9.86461,0.84375 9.68395,0 18.53681,-2.53125 26.55859,-7.59375 5.42011,-3.3125 10.11755,-7.46875 14.09231,-12.46875 6.07052,-7.75 9.10579,-16.25 9.10579,-25.5 0,-9.4375 -3.1798,-18.0625 -9.53941,-25.875 -4.19156,-5.0625 -9.28647,-9.1875 -15.28474,-12.375 -9.25033,-4.9375 -18.78973,-7.40625 -28.61821,-7.40625 z m -443.81061,0.002 c 1.18963,0.28177 2.36886,0.59624 3.53663,0.94531 9.34463,2.73973 17.66935,7.917 23.73786,14.63672 1.30915,1.57617 3.05082,3.0504 3.43275,5.04102 0.409,1.85566 -0.56375,3.77182 -2.26518,4.9043 -0.24261,0.16138 -0.50203,0.3085 -0.77235,0.43554 -3.30463,1.48132 -6.61111,2.96327 -9.91657,4.44336 l 28.36078,60.8125 h 4.4445 l 17.59054,-37.71875 c -0.50759,-2.55764 -0.77703,-5.15003 -0.79947,-7.74414 l -8.01049,17.15039 -22.43928,-48.28125 c -0.72268,-1.625 -1.08402,-3.21875 -1.08402,-4.78125 0,-2.8125 1.15629,-5.46875 3.46887,-7.96875 v -1.875 z m 79.39345,0 v 1.875 c 2.31258,2.5 3.46887,5.1875 3.46887,8.0625 0,1.02831 -0.15277,2.08678 -0.45845,3.17383 2.41428,-2.2144 5.0779,-4.229 7.90659,-6.03711 3.18901,-2.10116 6.66555,-3.8725 10.32985,-5.27539 v -1.79883 z m 42.07818,0 c -8.88899,0 -17.23598,1.96875 -25.04095,5.90625 -2.09235,1.11518 -4.06354,2.29443 -5.91018,3.53711 -3.63855,2.44856 -6.7984,5.14431 -9.48295,8.08789 -0.42202,0.50341 -0.80595,0.96362 -1.15178,1.38086 l -0.002,0.004 c -1.36848,1.65119 -2.14192,2.62861 -2.31486,2.92773 -4.12953,5.67505 -6.64366,11.73289 -7.54074,18.17383 v 0.002 c -0.24878,1.78689 -0.37263,3.60339 -0.37263,5.44922 0,1.43299 0.078,2.86248 0.23713,4.29102 v 0.002 c 0.43816,3.92916 1.48057,7.84273 3.12335,11.73828 3.90248,9.0625 10.37048,16.28125 19.40401,21.65625 9.10581,5.375 18.86202,8.0625 29.26865,8.0625 9.68394,0 18.60907,-2.46875 26.77539,-7.40625 5.37135,-3.21953 9.96496,-6.95649 13.81,-11.1914 1.37997,-1.51989 2.67623,-3.09543 3.85959,-4.7461 0.2168,-0.375 0.3252,-0.71875 0.3252,-1.03125 0,-0.4375 -0.18067,-0.875 -0.542,-1.3125 -0.28908,-0.4375 -0.83109,-0.65625 -1.62604,-0.65625 -0.84321,0 -1.51514,0.32464 -2.01675,0.97461 -0.0143,0.0185 -0.0289,0.0375 -0.0429,0.0566 -0.93948,1.6875 -3.3966,4.46875 -7.37136,8.34375 -3.97475,3.8125 -9.46715,7.25 -16.47716,10.3125 -3.25207,1.3125 -6.61255,1.96875 -10.08142,1.96875 -9.97302,0 -18.03094,-4.4375 -24.17373,-13.3125 -3.46888,-5.1875 -5.96213,-11.125 -7.47977,-17.8125 l 65.56989,-29.32422 4.02444,-1.80078 c 1.3731,-0.6875 2.05965,-1.625 2.05965,-2.8125 0,-0.625 -0.21681,-1.25 -0.65041,-1.875 -4.62902,-5.85101 -10.33084,-10.31667 -16.98982,-13.54687 -8.20728,-3.98127 -17.89864,-6.04688 -29.1896,-6.04688 z m 61.07344,0 -28.44884,5.39453 c 4.96246,2.72054 9.38404,6.17993 13.00377,10.1875 1.28922,1.55555 3.00419,3.00627 3.41468,4.95899 0.52124,2.14307 -0.8234,4.39103 -3.01947,5.42187 -1.7405,0.78018 -3.48063,1.56002 -5.22138,2.33985 v 34.97265 c 0.88295,-0.37219 1.89207,-0.51388 2.8817,-0.33984 2.83959,0.33647 4.421,3.42466 3.18432,5.57422 -1.60554,2.463 -3.60868,4.73063 -5.6979,6.9043 -0.12263,0.12444 -0.24426,0.24753 -0.36812,0.37109 v 0.15234 c 0,5.4375 -2.81846,9.9375 -8.45538,13.5 v 1.78125 h 42.16852 v -1.78125 c -5.49238,-3.25 -8.34698,-7.71875 -8.56377,-13.40625 v -54.84375 c 0.50587,-7.25 4.15542,-12.4375 10.94864,-15.5625 3.1798,-1.3125 6.39573,-1.96875 9.6478,-1.96875 3.39661,0 6.79322,0.75 10.18983,2.25 4.04702,2.0625 7.15455,4.90625 9.3226,8.53125 1.5899,3 2.85459,6.53125 3.79408,10.59375 0.50588,2 1.51763,3.375 3.03527,4.125 1.5899,0.75 3.03526,1.125 4.33609,1.125 0.86722,0 1.73444,-0.125 2.60166,-0.375 4.04702,-1.5 6.32347,-3.25 6.82935,-5.25 0.50588,-2.0625 0.75881,-3.4375 0.75881,-4.125 0,-2.625 -1.19242,-5.03125 -3.57727,-7.21875 -5.85373,-4.8125 -13.3335,-8.46875 -22.4393,-10.96875 -5.56465,-1.5625 -10.47889,-2.34375 -14.74271,-2.34375 -5.4924,0 -10.44277,1.53125 -14.85113,4.59375 -1.95124,1.3125 -3.90249,3.03125 -5.85372,5.15625 v -9.75 z m 74.36404,0 -22.50704,4.26758 c 3.67926,1.64153 7.16057,3.60068 10.33661,5.92187 2.85638,1.94387 5.2761,4.54802 6.09763,7.66602 0.76123,2.38316 0.1309,4.84197 -0.44039,7.19727 -0.75595,2.96965 -3.84359,4.89813 -6.83159,6.15429 -2.09545,1.01516 -4.59619,1.30045 -6.92646,0.86524 v 43.86523 c 0,5.4375 -2.81847,9.9375 -8.45539,13.5 v 1.78125 h 42.16853 v -1.78125 c -5.49239,-3.25 -8.31085,-7.71875 -8.45539,-13.40625 v -53.4375 l 0.54201,-1.78125 c 0.86722,-3.375 2.92687,-6.6875 6.17894,-9.9375 1.80671,-1.8125 4.19156,-3.4375 7.15455,-4.875 3.39661,-1.4375 6.79322,-2.15625 10.18983,-2.15625 3.25207,0 6.468,0.625 9.64781,1.875 6.43187,2.9375 10.00915,7.65625 10.73184,14.15625 0.28906,2.5625 0.4336,5.46875 0.4336,8.71875 -0.0722,2.25 -0.10834,5.625 -0.10834,10.125 v 14.625 l -0.10835,22.59375 c 0,5.4375 -2.81846,9.9375 -8.45539,13.5 v 1.78125 h 42.06012 v -1.78125 c -5.63692,-3.5625 -8.45538,-8.0625 -8.45538,-13.5 v -46.125 c 0,-2.75 -0.57814,-5.40625 -1.73444,-7.96875 0.36135,-1.25 1.73444,-3.53125 4.11929,-6.84375 2.38486,-3.375 6.21507,-6.375 11.49066,-9 3.39661,-1.4375 6.79321,-2.15625 10.18982,-2.15625 3.25207,0 6.46801,0.625 9.64781,1.875 3.39661,1.5625 6.0344,3.71875 7.91338,6.46875 1.5899,2.5625 2.52939,5.03125 2.81845,7.40625 0.28908,2.375 0.43362,4.5625 0.43362,6.5625 l -0.21681,49.78125 c 0,5.4375 -2.8546,9.9375 -8.56379,13.5 v 1.78125 h 42.16852 v -1.78125 c -5.63692,-3.5625 -8.45538,-8.0625 -8.45538,-13.5 l -0.0181,-3.52148 c -3.12603,-3.85215 -5.59958,-8.09674 -7.25844,-12.58789 -4.09473,-11.21471 -3.17218,-23.78411 2.74394,-34.39258 0.77588,-1.38619 1.62499,-2.74253 2.54294,-4.0625 -0.339,-0.69537 -0.72339,-1.38216 -1.15404,-2.06055 -3.97475,-6.4375 -9.82848,-11.375 -17.56118,-14.8125 -7.08229,-3 -14.67046,-4.5 -22.7645,-4.5 -7.58817,0 -13.91163,1.625 -18.97041,4.875 -3.83023,2.4375 -6.72095,4.90625 -8.6722,7.40625 -1.87897,2.4375 -2.96299,4.0625 -3.25207,4.875 -4.11928,-5.5625 -9.50327,-9.78125 -16.15195,-12.65625 -7.08228,-3 -14.67045,-4.5 -22.7645,-4.5 -10.26208,0 -18.5368,3.5 -24.82414,10.5 l -1.51763,1.6875 v -12.1875 z m 252.10101,0 -32.62912,6.1875 0.30262,1.24805 c 8.9659,5.52847 15.96275,13.4272 19.72698,22.38476 4.07296,9.7634 4.19682,20.71022 0.46974,30.56836 -1.8611,4.84328 -4.64256,9.4003 -8.14147,13.50586 v 2.04297 c 0,5.4375 -2.81846,9.9375 -8.45538,13.5 v 1.78125 h 42.16852 v -1.78125 c -5.49239,-3.25 -8.34698,-7.71875 -8.56379,-13.40625 v -53.4375 l 0.54201,-1.78125 c 1.95125,-6.5 6.43188,-11.4375 13.44189,-14.8125 3.39661,-1.4375 6.79322,-2.15625 10.18983,-2.15625 3.25207,0 6.468,0.625 9.64781,1.875 3.39661,1.5625 5.99826,3.71875 7.80497,6.46875 1.5899,2.5625 2.52939,5.03125 2.81846,7.40625 0.36134,2.375 0.54201,4.5625 0.54201,6.5625 l -0.2168,49.78125 c 0,5.4375 -2.8546,9.9375 -8.56378,13.5 v 1.78125 h 35.53338 c -0.6181,-0.34959 -1.21019,-0.73726 -1.76829,-1.16211 -3.72642,-2.68187 -6.1153,-6.72685 -6.2196,-10.9375 -0.033,-21.33542 -0.0121,-42.67209 -0.0135,-64.00781 -3.7265,-4.42727 -8.56785,-7.96373 -14.52366,-10.61133 -7.22682,-3 -14.81499,-4.5 -22.76449,-4.5 -10.11756,0 -18.39227,3.5 -24.82415,10.5 l -1.62604,1.6875 v -12.1875 z m -529.53204,3.74805 c 4.3361,0 8.34698,1.03125 12.03265,3.09375 4.26383,2.4375 7.66044,6.03125 10.18983,10.78125 1.51763,2.6875 3.1798,6.5 4.98651,11.4375 l -50.84071,22.6875 c -1.37309,-6.625 -2.05965,-12.71875 -2.05965,-18.28125 0,-9.875 2.49325,-17.28125 7.47976,-22.21875 5.05878,-5 11.12932,-7.5 18.21161,-7.5 z m 139.8255,0.002 c 4.3361,0 8.34699,1.03125 12.03266,3.09375 4.26383,2.4375 7.66044,6.03125 10.18982,10.78125 1.51765,2.6875 3.17982,6.5 4.98651,11.4375 l -50.84071,22.6875 c -1.37309,-6.625 -2.05964,-12.71875 -2.05964,-18.28125 0,-9.875 2.49326,-17.28125 7.47977,-22.21875 5.05878,-5 11.1293,-7.5 18.21159,-7.5 z m 320.82134,0.18555 c 3.97475,0 7.69657,0.90625 11.16545,2.71875 4.40836,2.1875 8.05791,5.5 10.94864,9.9375 1.95124,2.9375 3.86635,6.96875 5.74533,12.09375 2.74618,8.25 4.7697,16.4375 6.07053,24.5625 0.50587,3.5625 0.75882,6.4375 0.75882,8.625 0,10.5 -3.83023,17.90625 -11.49066,22.21875 -3.61341,2.125 -7.58817,3.1875 -11.92426,3.1875 -4.1193,0 -7.91337,-0.875 -11.38225,-2.625 -4.40837,-2.1875 -8.05791,-5.5 -10.94864,-9.9375 -4.91424,-7.3125 -8.85286,-19.53125 -11.81586,-36.65625 -0.50587,-3.5625 -0.75882,-6.4375 -0.75882,-8.625 0,-10.3125 3.83023,-17.75 11.49065,-22.3125 3.68569,-2.125 7.73271,-3.1875 12.14107,-3.1875 z"
       inkscape:label="evermont"
       inkscape:export-filename="evermont_logo.svg"
       inkscape:export-xdpi="96"
       inkscape:export-ydpi="96" /></g></svg>
