<svg width="155" height="23" viewBox="0 0 155 23" fill="none" xmlns="http://www.w3.org/2000/svg">
<path d="M147.676 0C147.676 1.27148 147.102 2.36043 145.953 3.26683C144.804 4.17323 143.368 4.62644 141.645 4.62644V5.36289H143.536V20.3563C143.536 21.0865 143.863 21.7096 144.517 22.2258C145.171 22.7419 145.961 23 146.886 23H150.955V22.6412C149.711 21.9236 149.088 21.0172 149.088 19.922V5.36289H155V4.62644H149.088V0H147.676ZM11.4404 4.54972C9.47783 4.54972 7.63492 4.94627 5.91168 5.73938C4.53947 6.40659 3.40659 7.18711 2.51306 8.08092C2.05034 8.58448 1.79504 8.87402 1.74718 8.94956C0.582392 10.4099 0 11.9961 0 13.7082C0 14.7908 0.247317 15.8672 0.741951 16.9372C1.60357 18.7626 3.03163 20.2167 5.02612 21.2993C7.03657 22.382 9.19062 22.9233 11.4883 22.9233C13.6264 22.9233 15.5969 22.426 17.4 21.4315C19.0115 20.5503 20.3119 19.4802 21.3012 18.2213C21.3491 18.1458 21.373 18.0765 21.373 18.0136C21.373 17.9255 21.3331 17.8374 21.2533 17.7492C21.1895 17.6611 21.0698 17.617 20.8943 17.617C20.7028 17.617 20.5513 17.6863 20.4396 17.8248C20.2321 18.1647 19.6896 18.7249 18.8121 19.5054C17.9345 20.2733 16.7218 20.9657 15.1741 21.5826C14.4561 21.8469 13.7141 21.9791 12.9482 21.9791C10.7463 21.9791 8.96724 21.0853 7.61098 19.2977C6.8451 18.2528 6.29462 17.0568 5.95954 15.7098L21.3251 9.44053C21.6283 9.30205 21.7799 9.11321 21.7799 8.87402C21.7799 8.74814 21.732 8.62225 21.6363 8.49636C19.3546 5.86527 15.9559 4.54972 11.4404 4.54972ZM113.481 4.54972C111.374 4.54972 109.42 5.05958 107.617 6.07928C106.42 6.75908 105.383 7.60254 104.505 8.60966C103.165 10.1707 102.495 11.8828 102.495 13.7459C102.495 15.6469 103.197 17.3842 104.601 18.9578C106.436 20.9594 108.941 22.2246 112.116 22.7533C112.85 22.8666 113.576 22.9233 114.294 22.9233C116.433 22.9233 118.387 22.4134 120.158 21.3937C121.355 20.7265 122.392 19.8894 123.27 18.8822C124.61 17.3212 125.28 15.6091 125.28 13.7459C125.28 11.845 124.578 10.1077 123.174 8.53412C122.248 7.51442 121.124 6.68355 119.799 6.04151C117.757 5.04699 115.651 4.54972 113.481 4.54972ZM15.4927 4.55013C15.7554 4.60688 16.0157 4.67023 16.2736 4.74054C18.3367 5.29238 20.1747 6.3352 21.5146 7.68871C21.8036 8.00619 22.1882 8.30313 22.2725 8.70409C22.3628 9.07786 22.148 9.46382 21.7724 9.69193C21.7188 9.72443 21.6615 9.75407 21.6019 9.77965C20.8722 10.078 20.1422 10.3765 19.4124 10.6746L25.6741 22.9237H26.6554L30.5392 15.3263C30.4271 14.8111 30.3676 14.2889 30.3627 13.7664L28.594 17.2209L23.6397 7.49594C23.4802 7.16863 23.4004 6.84761 23.4004 6.53289C23.4004 5.96638 23.6557 5.43135 24.1663 4.9278V4.55013H15.4927ZM33.0218 4.55013V4.9278C33.5324 5.43135 33.7877 5.97268 33.7877 6.55177C33.7877 6.7589 33.754 6.9721 33.6865 7.19105C34.2195 6.74502 34.8076 6.33923 35.4322 5.97504C36.1363 5.55182 36.9038 5.19503 37.7129 4.91245V4.55013H33.0218ZM42.3122 4.55013C40.3496 4.55013 38.5067 4.94668 36.7834 5.73978C36.3215 5.96441 35.8862 6.20193 35.4785 6.45224C34.6752 6.94544 33.9775 7.48842 33.3848 8.08133C33.2916 8.18273 33.2069 8.27542 33.1305 8.35946L33.13 8.36027C32.8279 8.69286 32.6571 8.88973 32.6189 8.94998C31.7072 10.0931 31.1521 11.3133 30.954 12.6106V12.611C30.8991 12.9709 30.8717 13.3368 30.8717 13.7086C30.8717 13.9972 30.889 14.2852 30.9241 14.5729V14.5733C31.0208 15.3647 31.251 16.153 31.6137 16.9377C32.4753 18.7631 33.9034 20.2171 35.8979 21.2998C37.9083 22.3824 40.0624 22.9237 42.36 22.9237C44.4981 22.9237 46.4687 22.4265 48.2717 21.4319C49.4576 20.7835 50.4718 20.0307 51.3208 19.1777C51.6255 18.8716 51.9117 18.5542 52.1729 18.2218C52.2208 18.1462 52.2447 18.077 52.2447 18.014C52.2447 17.9259 52.2048 17.8378 52.1251 17.7497C52.0612 17.6616 51.9416 17.6175 51.7661 17.6175C51.5799 17.6175 51.4315 17.6829 51.3208 17.8138C51.3176 17.8175 51.3144 17.8213 51.3113 17.8252C51.1039 18.1651 50.5614 18.7253 49.6838 19.5058C48.8062 20.2737 47.5936 20.9661 46.0458 21.583C45.3278 21.8474 44.5859 21.9795 43.82 21.9795C41.6181 21.9795 39.839 21.0857 38.4827 19.2981C37.7168 18.2532 37.1664 17.0573 36.8313 15.7103L51.3083 9.80368L52.1969 9.44096C52.5 9.30249 52.6516 9.11365 52.6516 8.87446C52.6516 8.74857 52.6037 8.62268 52.508 8.49679C51.486 7.31826 50.2271 6.41878 48.7569 5.76814C46.9448 4.96622 44.8051 4.55013 42.3122 4.55013ZM55.7964 4.55013L49.5153 5.63671C50.6109 6.18469 51.5872 6.88149 52.3863 7.68871C52.671 8.00203 53.0496 8.29424 53.1403 8.68756C53.2554 9.11923 52.9585 9.57202 52.4736 9.77965C52.0893 9.9368 51.7051 10.0939 51.3208 10.251V17.2953C51.5157 17.2203 51.7385 17.1917 51.957 17.2268C52.584 17.2946 52.9331 17.9166 52.6601 18.3496C52.3056 18.8457 51.8633 19.3024 51.4021 19.7403C51.375 19.7653 51.3481 19.7901 51.3208 19.815V19.8457C51.3208 20.9409 50.6985 21.8473 49.4539 22.5649V22.9237H58.7642V22.5649C57.5516 21.9103 56.9213 21.0102 56.8735 19.8646V8.81778C56.9852 7.35746 57.7909 6.31258 59.2908 5.68313C59.9929 5.41877 60.7029 5.28658 61.4209 5.28658C62.1708 5.28658 62.9208 5.43765 63.6707 5.73978C64.5642 6.15522 65.2503 6.72802 65.729 7.45817C66.08 8.06244 66.3593 8.77372 66.5667 9.592C66.6784 9.99485 66.9018 10.2718 67.2368 10.4229C67.5879 10.5739 67.907 10.6495 68.1942 10.6495C68.3857 10.6495 68.5771 10.6243 68.7686 10.5739C69.6621 10.2718 70.1648 9.91931 70.2765 9.51647C70.3881 9.10103 70.444 8.82407 70.444 8.6856C70.444 8.15686 70.1807 7.67219 69.6542 7.23157C68.3617 6.26222 66.7103 5.52577 64.6999 5.02221C63.4712 4.70749 62.3862 4.55013 61.4448 4.55013C60.2322 4.55013 59.1392 4.85856 58.1659 5.47542C57.7351 5.73978 57.3043 6.08598 56.8735 6.514V4.55013H55.7964ZM72.2151 4.55013L67.2458 5.40972C68.0582 5.74036 68.8268 6.13498 69.528 6.60252C70.1587 6.99406 70.6929 7.5186 70.8743 8.14663C71.0424 8.62666 70.9032 9.12192 70.7771 9.59633C70.6102 10.1945 69.9285 10.5829 69.2687 10.8359C68.8061 11.0404 68.254 11.0979 67.7395 11.0102V19.8457C67.7395 20.9409 67.1172 21.8473 65.8726 22.5649V22.9237H75.1829V22.5649C73.9703 21.9103 73.348 21.0102 73.3161 19.8646V9.10103L73.4357 8.74225C73.6272 8.06244 74.0819 7.39523 74.8 6.7406C75.1989 6.37553 75.7254 6.04821 76.3796 5.75867C77.1295 5.46912 77.8795 5.32435 78.6294 5.32435C79.3474 5.32435 80.0574 5.45024 80.7595 5.70202C82.1796 6.2937 82.9694 7.24416 83.129 8.55341C83.1928 9.06956 83.2247 9.65495 83.2247 10.3096C83.2087 10.7628 83.2008 11.4426 83.2008 12.349V15.2948L83.1769 19.8457C83.1769 20.9409 82.5546 21.8473 81.31 22.5649V22.9237H90.5964V22.5649C89.3518 21.8473 88.7295 20.9409 88.7295 19.8457V10.5551C88.7295 10.0011 88.6019 9.46611 88.3466 8.94996C88.4264 8.69818 88.7295 8.23869 89.2561 7.57148C89.7826 6.89167 90.6283 6.2874 91.7931 5.75867C92.543 5.46912 93.2929 5.32435 94.0429 5.32435C94.7609 5.32435 95.4709 5.45024 96.173 5.70202C96.9229 6.01674 97.5053 6.45106 97.9202 7.00497C98.2712 7.52112 98.4786 8.01838 98.5424 8.49676C98.6063 8.97514 98.6382 9.41576 98.6382 9.8186L98.5903 19.8457C98.5903 20.9409 97.96 21.8473 96.6995 22.5649V22.9237H106.01V22.5649C104.765 21.8473 104.143 20.9409 104.143 19.8457L104.139 19.1364C103.449 18.3605 102.903 17.5055 102.536 16.6009C101.632 14.342 101.836 11.8102 103.142 9.67344C103.314 9.39422 103.501 9.12103 103.704 8.85515C103.629 8.71509 103.544 8.57676 103.449 8.44011C102.571 7.14345 101.279 6.14892 99.5716 5.45653C98.0079 4.85226 96.3325 4.55013 94.5455 4.55013C92.8701 4.55013 91.4739 4.87744 90.357 5.53207C89.5114 6.02304 88.8731 6.5203 88.4423 7.02386C88.0275 7.51482 87.7881 7.84214 87.7243 8.00579C86.8148 6.88538 85.6261 6.03562 84.1581 5.45653C82.5945 4.85226 80.9191 4.55013 79.132 4.55013C76.8663 4.55013 75.0393 5.25511 73.6512 6.66507L73.3161 7.00497V4.55013H72.2151ZM127.876 4.55013L120.672 5.79643L120.739 6.04782C122.718 7.16138 124.263 8.75237 125.094 10.5566C125.993 12.5232 126.021 14.7281 125.198 16.7138C124.787 17.6894 124.173 18.6072 123.4 19.4342V19.8457C123.4 20.9409 122.778 21.8473 121.533 22.5649V22.9237H130.844V22.5649C129.631 21.9103 129.001 21.0102 128.953 19.8646V9.10103L129.073 8.74225C129.503 7.433 130.493 6.43847 132.04 5.75867C132.79 5.46912 133.54 5.32435 134.29 5.32435C135.008 5.32435 135.718 5.45024 136.42 5.70202C137.17 6.01674 137.745 6.45106 138.144 7.00497C138.495 7.52112 138.702 8.01838 138.766 8.49676C138.846 8.97514 138.885 9.41576 138.885 9.8186L138.838 19.8457C138.838 20.9409 138.207 21.8473 136.947 22.5649V22.9237H144.792C144.656 22.8533 144.525 22.7752 144.402 22.6896C143.579 22.1494 143.052 21.3347 143.029 20.4866C143.021 16.1891 143.026 11.8914 143.026 7.5939C142.203 6.70214 141.134 5.98982 139.819 5.45653C138.223 4.85226 136.548 4.55013 134.793 4.55013C132.559 4.55013 130.732 5.25511 129.312 6.66507L128.953 7.00497V4.55013H127.876ZM10.9617 5.30507C11.9191 5.30507 12.8046 5.51279 13.6184 5.92822C14.5598 6.41919 15.3097 7.14306 15.8682 8.09982C16.2033 8.64114 16.5702 9.40907 16.9691 10.4036L5.74414 14.9734C5.44098 13.639 5.28939 12.4115 5.28939 11.2911C5.28939 9.30206 5.83987 7.81027 6.94083 6.81574C8.05775 5.80863 9.39805 5.30507 10.9617 5.30507ZM41.8335 5.30548C42.7908 5.30548 43.6764 5.5132 44.4902 5.92863C45.4316 6.4196 46.1815 7.14346 46.7399 8.10022C47.075 8.64155 47.442 9.40947 47.8409 10.404L36.6159 14.9738C36.3127 13.6394 36.1612 12.4119 36.1612 11.2915C36.1612 9.30247 36.7116 7.81068 37.8126 6.81615C38.9295 5.80904 40.2698 5.30548 41.8335 5.30548ZM112.667 5.34285C113.544 5.34285 114.366 5.52539 115.132 5.89047C116.105 6.33108 116.911 6.9983 117.549 7.89211C117.98 8.48379 118.403 9.29578 118.818 10.3281C119.424 11.9898 119.871 13.639 120.158 15.2755C120.27 15.9931 120.326 16.5722 120.326 17.0128C120.326 19.1277 119.48 20.6195 117.789 21.4882C116.991 21.9162 116.113 22.1302 115.156 22.1302C114.247 22.1302 113.409 21.954 112.643 21.6015C111.67 21.1609 110.864 20.4936 110.226 19.5998C109.141 18.1269 108.271 15.6658 107.617 12.2164C107.505 11.4988 107.449 10.9198 107.449 10.4791C107.449 8.40196 108.295 6.90388 109.986 5.98489C110.8 5.55686 111.694 5.34285 112.667 5.34285Z" fill="url(#paint0_linear_2_5)"/>
<defs>
<linearGradient id="paint0_linear_2_5" x1="-2.55295e-06" y1="11.5" x2="155" y2="11.5" gradientUnits="userSpaceOnUse">
<stop offset="0.122371" stop-color="#5810BE" stop-opacity="0.7"/>
<stop offset="0.780115" stop-color="#4FD5C8" stop-opacity="0.75"/>
</linearGradient>
</defs>
</svg>
