<?xml version="1.0" encoding="UTF-8" standalone="no"?>
<!-- Created with Inkscape (http://www.inkscape.org/) -->

<svg
   width="296.99997mm"
   height="210mm"
   viewBox="0 0 1122.5196 793.70081"
   version="1.1"
   id="svg1"
   inkscape:version="1.4.2 (f4327f4, 2025-05-13)"
   sodipodi:docname="evermont.svg"
   inkscape:export-filename="evermont_events.svg"
   inkscape:export-xdpi="96"
   inkscape:export-ydpi="96"
   xmlns:inkscape="http://www.inkscape.org/namespaces/inkscape"
   xmlns:sodipodi="http://sodipodi.sourceforge.net/DTD/sodipodi-0.dtd"
   xmlns:xlink="http://www.w3.org/1999/xlink"
   xmlns="http://www.w3.org/2000/svg"
   xmlns:svg="http://www.w3.org/2000/svg">
  <sodipodi:namedview
     id="namedview1"
     pagecolor="#505050"
     bordercolor="#eeeeee"
     borderopacity="1"
     inkscape:showpageshadow="0"
     inkscape:pageopacity="0"
     inkscape:pagecheckerboard="0"
     inkscape:deskcolor="#505050"
     inkscape:document-units="mm"
     inkscape:zoom="0.92737797"
     inkscape:cx="594.68741"
     inkscape:cy="352.06788"
     inkscape:window-width="1920"
     inkscape:window-height="991"
     inkscape:window-x="-9"
     inkscape:window-y="-9"
     inkscape:window-maximized="1"
     inkscape:current-layer="layer2"
     showguides="false"
     showgrid="false">
    <inkscape:grid
       id="grid1"
       units="mm"
       originx="0"
       originy="0"
       spacingx="3.7795277"
       spacingy="3.7795276"
       empcolor="#0099e5"
       empopacity="0.30196078"
       color="#0099e5"
       opacity="0.14901961"
       empspacing="5"
       enabled="true"
       visible="false" />
    <inkscape:page
       x="0"
       y="0"
       width="1122.5197"
       height="793.70081"
       id="page2"
       margin="0"
       bleed="0" />
  </sodipodi:namedview>
  <defs
     id="defs1">
    <linearGradient
       id="linearGradient38"
       inkscape:collect="always">
      <stop
         style="stop-color:#5810be;stop-opacity:1;"
         offset="0.15058504"
         id="stop38" />
      <stop
         style="stop-color:#4fd5c8;stop-opacity:0.90000004;"
         offset="0.76175982"
         id="stop39" />
    </linearGradient>
    <linearGradient
       inkscape:collect="always"
       xlink:href="#linearGradient38"
       id="linearGradient39"
       x1="626.42328"
       y1="406.29028"
       x2="848.7041"
       y2="628.9079"
       gradientUnits="userSpaceOnUse"
       gradientTransform="translate(-195.95725,-123.41742)" />
  </defs>
  <g
     inkscape:groupmode="layer"
     id="layer3"
     inkscape:label="Layer 3"
     style="display:inline">
    <path
       id="path37"
       style="font-size:192px;font-family:RosaneMaison;-inkscape-font-specification:'RosaneMaison, Normal';display:inline;fill:url(#linearGradient39);fill-opacity:1;stroke-width:1.00157"
       inkscape:label="EM"
       d="m 479.14237,285.52204 c -5.76,0 -11.32849,0.38239 -16.89649,1.15039 -21.696,3.264 -40.89655,12.67269 -34.56055,26.30469 6.912,14.784 44.3536,17.08789 66.4336,17.08789 h 6.91015 c -6.912,13.44 -4.41534,27.07238 17.47266,33.98438 -16.896,1.536 -36.28834,7.67959 -49.15234,29.18359 -12.288,20.544 -7.67991,53.37696 26.49609,53.37696 9.411,0 18.39023,-2.33766 26.70313,-6.08203 1.23366,-0.55568 2.45266,-1.1432 3.65625,-1.75782 2.76496,-1.41193 5.44793,-2.9705 8.04101,-4.64062 2.77742,10.29281 12.36627,27.81517 24.1543,32.81055 2.06513,0.87513 4.19778,1.36523 6.37305,1.36523 9.45243,0 12.88353,-8.86042 11.34179,-14.17383 -0.14268,-0.49172 -0.32765,-0.95389 -0.55468,-1.375 -0.50888,-0.94392 -1.22737,-1.68631 -2.14649,-2.11523 -1.344,-0.576 -2.30367,-0.76758 -3.26367,-0.76758 -4.032,0 -5.56836,3.64844 -5.56836,3.64844 8.832,-0.192 8.25659,12.47851 -0.19141,12.47851 -2.36346,0 -4.78108,-0.71133 -7.16406,-1.97656 -9.42578,-5.00454 -18.30196,-18.67139 -21.06055,-31.23828 2.23059,-1.56304 4.38049,-3.24552 6.4375,-5.01758 6.18646,-5.32949 11.53929,-11.47521 15.76954,-17.66406 10.95001,-16.01986 14.3761,-32.32536 5.25,-35.49414 -1.152,-0.384 -2.49644,-0.57618 -3.64844,-0.57618 -4.61409,0 -9.14402,2.82122 -13.13281,7.45313 -5.4621,6.34277 -9.91151,16.08113 -12.17383,26.60937 -1.65373,7.69699 -2.13859,15.81815 -0.99805,23.34571 -2.37337,1.72609 -4.872,3.26791 -7.46484,4.62109 -1.19983,0.62619 -2.41966,1.21089 -3.65625,1.75586 -7.98102,3.51726 -16.66,5.33399 -25.16602,5.33399 -48.576,0 -13.2485,-77.1836 26.6875,-77.1836 3.072,0 6.1448,0.38375 9.2168,1.34375 0.384,0.192 0.95975,4.2e-4 1.34375,-0.76758 0.192,-0.576 -7.7e-4,-1.34511 -0.38477,-1.53711 -4.416,-2.496 -8.83162,-3.45525 -14.01562,-4.03125 -9.6,-1.152 -17.66521,-11.71092 -4.03321,-31.29492 62.4,-4.608 67.39238,-28.80106 57.98438,-36.28906 -3.264,-2.688 -7.48652,-3.83985 -12.47852,-3.83985 -19.584,0 -48.57689,19.1998 -59.71289,38.5918 -17.472,0.384 -61.0565,-0.19137 -69.3125,-15.35937 -6.528,-11.904 9.9847,-21.12136 30.7207,-24.19336 5.376,-0.768 11.13513,-1.1504 16.70313,-1.1504 14.016,0 27.26505,2.68744 31.87305,9.02344 5.952,8.256 -0.57653,13.05521 -6.14453,14.78321 -1.728,0.576 -3.64836,0.76953 -5.56836,0.76953 -8.832,0 -19.39097,-5.56916 -20.54297,-14.78516 -4.992,0.576 -7.29713,5.37663 -5.95313,8.64063 2.88,6.336 12.47991,8.63867 21.50391,8.63867 4.608,0 9.21647,-0.57456 12.48047,-1.72656 8.64,-3.072 11.3287,-10.17708 6.7207,-16.70508 -5.376,-7.488 -19.96812,-10.5586 -35.32812,-10.5586 z m 86.59179,8.63867 c 2.688,0 5.18352,0.57729 7.10352,2.11329 7.104,5.184 -0.38352,26.11168 -55.10352,31.67968 13.632,-18.432 34.752,-33.79297 48,-33.79297 z m -50.49804,77.29298 v 1.875 c 4.875,3.5 7.3125,8 7.3125,13.5 v 48.79297 c 1.23922,-0.56917 2.45898,-1.17972 3.65625,-1.83204 v -46.67968 l 7.16406,17.76367 c 0.9423,-3.68897 2.16147,-7.30673 3.63476,-10.8125 2.26638,-5.26287 5.12309,-10.39569 9.00586,-14.63672 l -3.21093,-7.9707 z m 109.3125,0 -40.875,101.4375 -5.45313,-13.53321 c -0.6654,3.46563 -2.66944,6.69734 -5.60156,8.67188 -3.84298,2.6125 -8.85729,2.81156 -13.20508,1.41992 l 14.69727,36.44141 50.4375,-124.96875 v 109.6875 c 0,5.4375 -2.4375,9.9375 -7.3125,13.5 v 1.78125 h 36.46875 v -1.78125 c -4.75,-3.25 -7.21875,-7.75 -7.40625,-13.5 v -103.875 c 0.1875,-5.6875 2.65625,-10.15625 7.40625,-13.40625 v -1.875 z m -65.72657,4.5 c 0.768,0 1.53533,0.38357 2.11133,0.76757 4.457,3.54275 2.45168,15.72353 -4.51758,28.52735 -3.68146,6.76352 -8.74751,13.70178 -14.97851,19.63086 -1.79074,1.70396 -3.67647,3.32459 -5.6543,4.83398 -0.66388,-6.36543 -0.4471,-12.36673 0.39063,-17.88672 1.82467,-12.02076 6.59024,-21.76636 11.59179,-28.04883 3.99326,-5.01595 8.13696,-7.82421 11.05664,-7.82421 z m -10.1914,9.97656 c -5.94443,8.03493 -9.36971,17.74998 -10.67774,27.60937 -0.0884,0.66507 -0.17319,1.48465 -0.23828,2.10938 l 2.91406,7.22656 c 5.96334,-5.83581 10.99017,-12.63863 14.80665,-20.06055 z m 10.63281,26.38476 c -4.52942,6.43927 -9.86856,12.31443 -15.875,17.40235 l 12.58203,31.19726 c 2.53743,1.75978 5.41689,3.08022 8.53906,3.08399 1.96217,0.067 3.84523,-1.31219 4.28516,-3.24219 0.5839,-1.91573 -0.26495,-4.37545 -2.30859,-4.98047 -1.6372,-0.47813 -3.37138,-0.1623 -5.05078,-0.2539 0.92078,-1.83751 1.56562,-3.89681 3.10742,-5.33789 2.18257,-2.26633 5.70249,-2.87265 8.60742,-1.78711 0.2597,0.0708 0.51246,0.15746 0.75781,0.25976 z m -33.05859,28.69727 c -1.20329,0.59825 -2.42262,1.16834 -3.65625,1.70703 v 47.89063 c 0,5.4375 -2.4375,9.9375 -7.3125,13.5 v 1.78125 h 18.28125 v -1.78125 c -4.875,-3.5625 -7.3125,-8.0625 -7.3125,-13.5 z" />
  </g>
</svg>
