<?xml version="1.0" encoding="UTF-8" standalone="no"?>
<!-- Created with Inkscape (http://www.inkscape.org/) -->

<svg
   width="170.36377mm"
   height="164.25928mm"
   viewBox="0 0 643.89457 620.82248"
   version="1.1"
   id="svg1"
   inkscape:version="1.4.2 (f4327f4, 2025-05-13)"
   sodipodi:docname="evermont.svg"
   inkscape:export-filename="evermont_logo_opacity80.svg"
   inkscape:export-xdpi="96"
   inkscape:export-ydpi="96"
   xmlns:inkscape="http://www.inkscape.org/namespaces/inkscape"
   xmlns:sodipodi="http://sodipodi.sourceforge.net/DTD/sodipodi-0.dtd"
   xmlns:xlink="http://www.w3.org/1999/xlink"
   xmlns="http://www.w3.org/2000/svg"
   xmlns:svg="http://www.w3.org/2000/svg">
  <sodipodi:namedview
     id="namedview1"
     pagecolor="#505050"
     bordercolor="#eeeeee"
     borderopacity="1"
     inkscape:showpageshadow="0"
     inkscape:pageopacity="0"
     inkscape:pagecheckerboard="0"
     inkscape:deskcolor="#505050"
     inkscape:document-units="mm"
     inkscape:zoom="0.92737797"
     inkscape:cx="625.95837"
     inkscape:cy="414.60981"
     inkscape:window-width="1920"
     inkscape:window-height="991"
     inkscape:window-x="-9"
     inkscape:window-y="-9"
     inkscape:window-maximized="1"
     inkscape:current-layer="layer3"
     showguides="false"
     showgrid="false">
    <inkscape:grid
       id="grid1"
       units="mm"
       originx="-239.31252"
       originy="-94.488193"
       spacingx="3.7795277"
       spacingy="3.7795276"
       empcolor="#0099e5"
       empopacity="0.30196078"
       color="#0099e5"
       opacity="0.14901961"
       empspacing="5"
       enabled="true"
       visible="false" />
    <inkscape:page
       x="2.8695847e-14"
       y="6.8120622e-15"
       width="643.89453"
       height="620.82251"
       id="page2"
       margin="0"
       bleed="0" />
  </sodipodi:namedview>
  <defs
     id="defs1">
    <linearGradient
       id="linearGradient118-2">
      <stop
         style="stop-color:#5810be;stop-opacity:0.64999998;"
         offset="0.12237094"
         id="stop119" />
      <stop
         style="stop-color:#4fd5c8;stop-opacity:0.75;"
         offset="0.78011471"
         id="stop5" />
    </linearGradient>
    <linearGradient
       inkscape:collect="always"
       xlink:href="#linearGradient118-2"
       id="linearGradient11"
       x1="257.68945"
       y1="517.38477"
       x2="864.83008"
       y2="517.38477"
       gradientUnits="userSpaceOnUse"
       gradientTransform="translate(0,-170.07903)" />
  </defs>
  <g
     inkscape:label="Layer 1"
     inkscape:groupmode="layer"
     id="layer1"
     style="display:inline"
     transform="translate(-239.31253,-94.488187)">
    <path
       id="text1"
       style="font-size:192px;font-family:Aesthetiva;-inkscape-font-specification:'Aesthetiva, Normal';mix-blend-mode:normal;fill:url(#linearGradient11);fill-rule:nonzero;stroke:none;stroke-width:1.00157;stroke-dasharray:none"
       d="m 836.1426,290.212 c 0,6.3125 -2.25,11.71875 -6.75,16.21875 -4.5,4.5 -10.125,6.75 -16.875,6.75 v 3.65625 h 7.40625 v 74.4375 c 0,3.625 1.28125,6.71875 3.84375,9.28125 2.5625,2.5625 5.65625,3.84375 9.28125,3.84375 h 15.9375 v -1.78125 c -4.875,-3.5625 -7.3125,-8.0625 -7.3125,-13.5 V 316.837 h 23.15625 v -3.65625 H 841.67385 V 290.212 Z m -533.64064,22.58789 c -7.6875,0 -14.90625,1.96875 -21.65625,5.90625 -5.375,3.3125 -9.8125,7.1875 -13.3125,11.625 -1.8125,2.5 -2.8125,3.9375 -3,4.3125 -4.5625,7.25 -6.84375,15.125 -6.84375,23.625 0,5.375 0.96875,10.71875 2.90625,16.03125 3.375,9.0625 8.96875,16.28125 16.78125,21.65625 7.875,5.375 16.3125,8.0625 25.3125,8.0625 8.375,0 16.09375,-2.46875 23.15625,-7.40625 6.3125,-4.375 11.40625,-9.6875 15.28125,-15.9375 0.1875,-0.375 0.28125,-0.71875 0.28125,-1.03125 0,-0.4375 -0.15625,-0.875 -0.46875,-1.3125 -0.25,-0.4375 -0.71875,-0.65625 -1.40625,-0.65625 -0.75,0 -1.34375,0.34375 -1.78125,1.03125 -0.8125,1.6875 -2.9375,4.46875 -6.375,8.34375 -3.4375,3.8125 -8.1875,7.25 -14.25,10.3125 -2.8125,1.3125 -5.71875,1.96875 -8.71875,1.96875 -8.625,0 -15.59375,-4.4375 -20.90625,-13.3125 -3,-5.1875 -5.15625,-11.125 -6.46875,-17.8125 l 60.1875,-31.125 c 1.1875,-0.6875 1.78125,-1.625 1.78125,-2.8125 0,-0.625 -0.1875,-1.25 -0.5625,-1.875 -8.9375,-13.0625 -22.25,-19.59375 -39.9375,-19.59375 z m 399.69532,0 c -8.25,0 -15.90625,2.53125 -22.96875,7.59375 -4.6875,3.375 -8.75,7.5625 -12.1875,12.5625 -5.25,7.75 -7.875,16.25 -7.875,25.5 0,9.4375 2.75,18.0625 8.25,25.875 7.1875,9.9375 17,16.21875 29.4375,18.84375 2.875,0.5625 5.71875,0.84375 8.53125,0.84375 8.375,0 16.03125,-2.53125 22.96875,-7.59375 4.6875,-3.3125 8.75,-7.46875 12.1875,-12.46875 5.25,-7.75 7.875,-16.25 7.875,-25.5 0,-9.4375 -2.75,-18.0625 -8.25,-25.875 -3.625,-5.0625 -8.03125,-9.1875 -13.21875,-12.375 -8,-4.9375 -16.25,-7.40625 -24.75,-7.40625 z m -383.82227,0.002 c 1.02883,0.28177 2.04867,0.59624 3.05859,0.94531 8.08155,2.73973 15.28105,7.917 20.5293,14.63672 1.13219,1.57617 2.63845,3.0504 2.96875,5.04102 0.35372,1.85566 -0.48755,3.77182 -1.95899,4.9043 -0.20982,0.16138 -0.43418,0.3085 -0.66796,0.43554 -2.85796,1.48132 -5.71751,2.96327 -8.57618,4.44336 l 24.52735,60.8125 h 3.84375 l 15.21289,-37.71875 c -0.43898,-2.55764 -0.672,-5.15003 -0.69141,-7.74414 l -6.92773,17.15039 -19.40625,-48.28125 c -0.625,-1.625 -0.9375,-3.21875 -0.9375,-4.78125 0,-2.8125 1,-5.46875 3,-7.96875 v -1.875 z m 68.66211,0 v 1.875 c 2,2.5 3,5.1875 3,8.0625 0,1.02831 -0.13213,2.08678 -0.39649,3.17383 2.08795,-2.2144 4.39154,-4.229 6.83789,-6.03711 2.75796,-2.10116 5.76459,-3.8725 8.9336,-5.27539 v -1.79883 z m 36.39062,0 c -7.6875,0 -14.90625,1.96875 -21.65625,5.90625 -1.80953,1.11518 -3.51429,2.29443 -5.11132,3.53711 -3.14674,2.44856 -5.87948,5.14431 -8.20118,8.08789 -0.36497,0.50341 -0.69701,0.96362 -0.99609,1.38086 l -0.002,0.004 c -1.1835,1.65119 -1.8524,2.62861 -2.00196,2.92773 -3.57136,5.67505 -5.74566,11.73289 -6.52148,18.17383 v 0.002 c -0.21516,1.78689 -0.32227,3.60339 -0.32227,5.44922 0,1.43299 0.0674,2.86248 0.20508,4.29102 v 0.002 c 0.37894,3.92916 1.28044,7.84273 2.70117,11.73828 3.375,9.0625 8.96875,16.28125 16.78125,21.65625 7.875,5.375 16.3125,8.0625 25.3125,8.0625 8.375,0 16.09375,-2.46875 23.15625,-7.40625 4.64533,-3.21953 8.61804,-6.95649 11.94336,-11.1914 1.19344,-1.51989 2.31449,-3.09543 3.3379,-4.7461 0.1875,-0.375 0.28125,-0.71875 0.28125,-1.03125 0,-0.4375 -0.15625,-0.875 -0.46875,-1.3125 -0.25,-0.4375 -0.71875,-0.65625 -1.40625,-0.65625 -0.72924,0 -1.31034,0.32464 -1.74415,0.97461 -0.0123,0.0185 -0.025,0.0375 -0.0371,0.0566 -0.8125,1.6875 -2.9375,4.46875 -6.375,8.34375 -3.4375,3.8125 -8.18751,7.25 -14.25001,10.3125 -2.8125,1.3125 -5.71875,1.96875 -8.71875,1.96875 -8.625,0 -15.59375,-4.4375 -20.90625,-13.3125 -3,-5.1875 -5.15625,-11.125 -6.46875,-17.8125 l 56.70704,-29.32422 3.48047,-1.80078 c 1.1875,-0.6875 1.78125,-1.625 1.78125,-2.8125 0,-0.625 -0.1875,-1.25 -0.5625,-1.875 -4.00332,-5.85101 -8.93446,-10.31667 -14.69336,-13.54687 -7.09793,-3.98127 -15.47934,-6.04688 -25.24415,-6.04688 z m 52.81836,0 -24.60351,5.39453 c 4.2917,2.72054 8.11563,6.17993 11.24609,10.1875 1.11496,1.55555 2.59813,3.00627 2.95313,4.95899 0.45079,2.14307 -0.7121,4.39103 -2.61133,5.42187 -1.50525,0.78018 -3.01017,1.56002 -4.51563,2.33985 v 34.97265 c 0.7636,-0.37219 1.63632,-0.51388 2.49219,-0.33984 2.45577,0.33647 3.82343,3.42466 2.75391,5.57422 -1.38853,2.463 -3.12091,4.73063 -4.92774,6.9043 -0.10605,0.12444 -0.21124,0.24753 -0.31836,0.37109 v 0.15234 c 0,5.4375 -2.4375,9.9375 -7.3125,13.5 v 1.78125 h 36.46876 v -1.78125 c -4.75,-3.25 -7.21875,-7.71875 -7.40625,-13.40625 v -54.84375 c 0.4375,-7.25 3.59375,-12.4375 9.46875,-15.5625 2.75,-1.3125 5.53125,-1.96875 8.34375,-1.96875 2.9375,0 5.875,0.75 8.8125,2.25 3.5,2.0625 6.1875,4.90625 8.0625,8.53125 1.375,3 2.46875,6.53125 3.28125,10.59375 0.4375,2 1.3125,3.375 2.625,4.125 1.375,0.75 2.625,1.125 3.75,1.125 0.75,0 1.5,-0.125 2.25,-0.375 3.5,-1.5 5.46875,-3.25 5.90625,-5.25 0.4375,-2.0625 0.65625,-3.4375 0.65625,-4.125 0,-2.625 -1.03125,-5.03125 -3.09375,-7.21875 -5.0625,-4.8125 -11.53125,-8.46875 -19.40625,-10.96875 -4.8125,-1.5625 -9.0625,-2.34375 -12.75,-2.34375 -4.75,0 -9.03125,1.53125 -12.84375,4.59375 -1.6875,1.3125 -3.375,3.03125 -5.0625,5.15625 v -9.75 z m 64.31251,0 -19.46485,4.26758 c 3.18195,1.64153 6.19271,3.60068 8.93946,5.92187 2.47029,1.94387 4.56294,4.54802 5.27343,7.66602 0.65834,2.38316 0.11321,4.84197 -0.38086,7.19727 -0.65378,2.96965 -3.32407,4.89813 -5.9082,6.15429 -1.81221,1.01516 -3.97493,1.30045 -5.99023,0.86524 v 43.86523 c 0,5.4375 -2.4375,9.9375 -7.3125,13.5 v 1.78125 h 36.46875 v -1.78125 c -4.75,-3.25 -7.1875,-7.71875 -7.3125,-13.40625 v -53.4375 l 0.46875,-1.78125 c 0.75,-3.375 2.53125,-6.6875 5.34375,-9.9375 1.5625,-1.8125 3.625,-3.4375 6.1875,-4.875 2.9375,-1.4375 5.875,-2.15625 8.8125,-2.15625 2.8125,0 5.59375,0.625 8.34375,1.875 5.5625,2.9375 8.65625,7.65625 9.28125,14.15625 0.25,2.5625 0.375,5.46875 0.375,8.71875 -0.0625,2.25 -0.0937,5.625 -0.0937,10.125 v 14.625 l -0.0937,22.59375 c 0,5.4375 -2.4375,9.9375 -7.3125,13.5 v 1.78125 h 36.375 v -1.78125 c -4.875,-3.5625 -7.3125,-8.0625 -7.3125,-13.5 v -46.125 c 0,-2.75 -0.5,-5.40625 -1.5,-7.96875 0.3125,-1.25 1.5,-3.53125 3.5625,-6.84375 2.0625,-3.375 5.375,-6.375 9.9375,-9 2.9375,-1.4375 5.875,-2.15625 8.8125,-2.15625 2.8125,0 5.59375,0.625 8.34375,1.875 2.9375,1.5625 5.21875,3.71875 6.84375,6.46875 1.375,2.5625 2.1875,5.03125 2.4375,7.40625 0.25,2.375 0.375,4.5625 0.375,6.5625 l -0.1875,49.78125 c 0,5.4375 -2.46875,9.9375 -7.40625,13.5 v 1.78125 h 36.46875 v -1.78125 c -4.875,-3.5625 -7.3125,-8.0625 -7.3125,-13.5 l -0.0156,-3.52148 c -2.7035,-3.85215 -4.8427,-8.09674 -6.27734,-12.58789 -3.54126,-11.21471 -2.74341,-23.78411 2.37305,-34.39258 0.67101,-1.38619 1.40535,-2.74253 2.19922,-4.0625 -0.29318,-0.69537 -0.62561,-1.38216 -0.99805,-2.06055 -3.4375,-6.4375 -8.5,-11.375 -15.1875,-14.8125 -6.125,-3 -12.6875,-4.5 -19.6875,-4.5 -6.5625,0 -12.03125,1.625 -16.40625,4.875 -3.3125,2.4375 -5.8125,4.90625 -7.5,7.40625 -1.625,2.4375 -2.5625,4.0625 -2.8125,4.875 -3.5625,-5.5625 -8.21875,-9.78125 -13.96875,-12.65625 -6.125,-3 -12.6875,-4.5 -19.6875,-4.5 -8.875,0 -16.03125,3.5 -21.46875,10.5 l -1.3125,1.6875 v -12.1875 z m 218.02539,0 -28.21875,6.1875 0.26172,1.24805 c 7.754,5.52847 13.80512,13.4272 17.06055,22.38476 3.52243,9.7634 3.62955,20.71022 0.40625,30.56836 -1.60955,4.84328 -4.01505,9.4003 -7.04102,13.50586 v 2.04297 c 0,5.4375 -2.4375,9.9375 -7.3125,13.5 v 1.78125 H 770.209 v -1.78125 c -4.75,-3.25 -7.21875,-7.71875 -7.40625,-13.40625 v -53.4375 l 0.46875,-1.78125 c 1.6875,-6.5 5.5625,-11.4375 11.625,-14.8125 2.9375,-1.4375 5.875,-2.15625 8.8125,-2.15625 2.8125,0 5.59375,0.625 8.34375,1.875 2.9375,1.5625 5.1875,3.71875 6.75,6.46875 1.375,2.5625 2.1875,5.03125 2.4375,7.40625 0.3125,2.375 0.46875,4.5625 0.46875,6.5625 l -0.1875,49.78125 c 0,5.4375 -2.46875,9.9375 -7.40625,13.5 v 1.78125 h 30.73047 c -0.53456,-0.34959 -1.04662,-0.73726 -1.52929,-1.16211 -3.22272,-2.68187 -5.28871,-6.72685 -5.37891,-10.9375 -0.0285,-21.33542 -0.0105,-42.67209 -0.0117,-64.00781 -3.2228,-4.42727 -7.40977,-7.96373 -12.56055,-10.61133 -6.25,-3 -12.8125,-4.5 -19.6875,-4.5 -8.75,0 -15.90625,3.5 -21.46875,10.5 l -1.40625,1.6875 v -12.1875 z m -457.95704,3.74805 c 3.75,0 7.21875,1.03125 10.40625,3.09375 3.6875,2.4375 6.625,6.03125 8.8125,10.78125 1.3125,2.6875 2.75,6.5 4.3125,11.4375 l -43.96875,22.6875 c -1.1875,-6.625 -1.78125,-12.71875 -1.78125,-18.28125 0,-9.875 2.15625,-17.28125 6.46875,-22.21875 4.375,-5 9.625,-7.5 15.75,-7.5 z m 120.92578,0.002 c 3.75,0 7.21875,1.03125 10.40625,3.09375 3.6875,2.4375 6.625,6.03125 8.8125,10.78125 1.3125,2.6875 2.75,6.5 4.3125,11.4375 l -43.96875,22.6875 c -1.1875,-6.625 -1.78125,-12.71875 -1.78125,-18.28125 0,-9.875 2.15625,-17.28125 6.46875,-22.21875 4.375,-5 9.625,-7.5 15.75,-7.5 z m 277.45704,0.18555 c 3.4375,0 6.65625,0.90625 9.65625,2.71875 3.8125,2.1875 6.96875,5.5 9.46875,9.9375 1.6875,2.9375 3.34375,6.96875 4.96875,12.09375 2.375,8.25 4.125,16.4375 5.25,24.5625 0.4375,3.5625 0.65625,6.4375 0.65625,8.625 0,10.5 -3.3125,17.90625 -9.9375,22.21875 -3.125,2.125 -6.5625,3.1875 -10.3125,3.1875 -3.5625,0 -6.84375,-0.875 -9.84375,-2.625 -3.8125,-2.1875 -6.96875,-5.5 -9.46875,-9.9375 -4.25,-7.3125 -7.65625,-19.53125 -10.21875,-36.65625 -0.4375,-3.5625 -0.65625,-6.4375 -0.65625,-8.625 0,-10.3125 3.3125,-17.75 9.9375,-22.3125 3.1875,-2.125 6.6875,-3.1875 10.5,-3.1875 z"
       inkscape:label="evermont" />
  </g>
</svg>
